<svg enable-background="new 0 0 512 512" height="512" viewBox="0 0 512 512" width="512" xmlns="http://www.w3.org/2000/svg"><path fill="#222" d="m388 0h-264c-33.084 0-60 26.916-60 60v392c0 33.084 26.916 60 60 60h264c33.084 0 60-26.916 60-60v-392c0-33.084-26.916-60-60-60zm20 452c0 11.028-8.972 20-20 20h-264c-11.028 0-20-8.972-20-20v-392c0-11.028 8.972-20 20-20h264c11.028 0 20 8.972 20 20zm-184-223.716v69.432l90.858-90.858 28.284 28.284-119.142 119.142v77.716h-40v-352h40v91.716l90.858-90.858 28.284 28.284z"/></svg>